<?xml version="1.0" encoding="UTF-8"?>
<svg id="Calque_2" data-name="Calque 2" xmlns="http://www.w3.org/2000/svg" version="1.1" viewBox="0 0 227.6 198.2">
  <defs>
    <style>
      .cls-1 {
        fill: #fff;
        stroke-width: 0px;
      }
    </style>
  </defs>
  <g id="Calque_1-2" data-name="Calque 1-2">
    <g>
      <path class="cls-1" d="M141.1,159.6c7.5-1.9,14.6-3.7,22-5.6-.8-2.9-1.4-5.1-2-7.2-7.2,1.8-14,3.5-21,5.3.3,2.4.6,4.5,1,7.5ZM59,151.6c2.8,1.1,6.2,1.2,7.7,3.2,1.4,2,.8,5.9,1.1,9.1,1.9.1,3.8.3,6.4.5-.2-5-.3-9.7-.6-14.4,0-.7-1-1.5-1.7-1.8-3.5-1.3-7.1-2.4-10.8-3.6-.7,2.2-1.3,4.3-2.1,7h0ZM181.4,138.1c.9,2.1,1.8,4.2,2.9,6.8,6.6-4.6,12.9-9.1,19.4-13.7-1.7-2.5-3-4.3-4.1-5.9-6.1,4.3-12,8.4-18.3,12.8h0ZM227.6,86.5c-2.4-.2-4.4-.4-5.6-.5-2.7,7.8-5,14.7-7.5,22,1.3,1,3,2.3,4.8,3.7,4.5-7.8,7.3-15.7,8.3-25.3h0ZM192.8,21.9c-6.9-3.7-13.6-7.3-20.6-11-.9,3-1.5,5.1-2.1,7.1,6.6,3.5,12.9,6.9,19.4,10.4,1-1.9,2-3.9,3.3-6.6ZM149.2,11.4c.4-2.5.7-4.7,1.2-7.4-7.5-1.2-14.7-2.3-22.1-3.5-.2,2.8-.3,5.1-.5,7.5,7.2,1.2,14.1,2.3,21.4,3.5h0ZM43.6,25.2c6.9-3.3,13.4-6.3,20-9.4-.7-2.3-1.3-4.4-2.1-7.2-7.1,3.4-13.9,6.6-20.9,9.9,1.2,2.8,2.1,4.7,3,6.7h0ZM19.1,126.6c6.4,5.1,12.4,10,18.7,15.1,1.3-2.8,2.3-4.8,3.2-6.6-5.9-4.8-11.7-9.4-17.5-14.1-1.3,1.6-2.6,3.3-4.5,5.6ZM118.5,153.8c-4,0-7.6,0-11.1,0-.8,0-1.8.7-2.3,1.5-2,3.4-3.8,6.9-5.8,10.4.8.8,1.5,1.5,2.3,2.2.8.8,1.7,1.4,2.5,2.1.4-.5,14-8.9,14.4-9.1v-7.2h0ZM84.6,10.1c7.3-.9,14.3-1.7,21.6-2.6-.1-2.4-.2-4.6-.4-7.5-7.5.9-14.7,1.7-22.2,2.6.4,2.9.8,5.2,1.1,7.5h0ZM64.1,180.8c-3.2,5.7-6.3,11.2-9.8,17.5,6.6-1.4,12.4-2.8,18.9-4.2-1.9-2.8,0-7.5-4.7-7.1.3-1.1.7-2.1,1-3.3-2-1-3.8-2-5.5-2.8h0ZM224.1,59.9c-3.4-8.6-7.7-15.6-12.9-21.3-1.9,1.8-3.4,3.2-4.6,4.3,4.1,6.8,8.1,13.1,12,19.6,1.6-.8,3.4-1.7,5.4-2.7ZM10.3,102.3c-1.6-8-3.1-15.3-4.7-22.9H0c-.3,9.3,1.5,17.8,5.3,25.9,2-1.2,3.7-2.2,5-2.9h0ZM11.8,56.7c4.7-6.3,9.2-12.2,13.8-18.3-1.2-1.6-2.4-3.3-4.3-5.9-5.2,7-10.1,13.5-15.2,20.3,2.5,1.7,4.2,2.8,5.7,3.8h0ZM84.7,188.7c3.6-2.6,7-5.1,10.8-7.8-1.6-2.2-2.9-4.1-4.2-5.9-3.3,2.5-6.4,4.8-9.5,7.1,1,2.2,1.9,4.2,3,6.6h0Z"/>
      <path class="cls-1" d="M141.1,159.6c-.4-2.9-.7-5.1-1-7.5,7.1-1.8,13.9-3.5,21-5.3.6,2.1,1.2,4.3,2,7.2-7.4,1.9-14.5,3.7-22,5.6Z"/>
      <path class="cls-1" d="M59,151.6c.8-2.7,1.4-4.8,2.1-7,3.8,1.2,7.3,2.3,10.8,3.6.7.2,1.6,1.1,1.7,1.8.3,4.7.4,9.4.6,14.4-2.6-.2-4.5-.4-6.4-.5-.3-3.2.3-7.1-1.1-9.1-1.4-2-4.9-2.1-7.7-3.2h0Z"/>
      <path class="cls-1" d="M181.4,138.1c6.3-4.4,12.2-8.5,18.3-12.8,1.1,1.6,2.4,3.4,4.1,5.9-6.5,4.6-12.8,9.1-19.4,13.7-1.1-2.6-2-4.7-2.9-6.8h0Z"/>
      <path class="cls-1" d="M227.6,86.5c-.9,9.5-3.8,17.5-8.3,25.3-1.8-1.4-3.6-2.7-4.8-3.7,2.5-7.3,4.8-14.2,7.5-22,1.2.1,3.2.3,5.6.5h0Z"/>
      <path class="cls-1" d="M192.8,21.9c-1.3,2.6-2.4,4.6-3.3,6.6-6.6-3.5-12.8-6.9-19.4-10.4.6-2,1.2-4.2,2.1-7.1,7,3.7,13.7,7.3,20.6,11Z"/>
      <path class="cls-1" d="M149.2,11.4c-7.3-1.2-14.2-2.3-21.4-3.5.2-2.4.3-4.7.5-7.5,7.5,1.2,14.6,2.3,22.1,3.5-.4,2.7-.8,5-1.2,7.5h0Z"/>
      <path class="cls-1" d="M43.6,25.2c-.9-2-1.8-3.9-3-6.7,7-3.3,13.8-6.5,20.9-9.9.8,2.8,1.4,4.8,2.1,7.2-6.6,3.1-13,6.1-20,9.4h0Z"/>
      <path class="cls-1" d="M19.1,126.6c1.8-2.3,3.2-4,4.5-5.6,5.8,4.7,11.6,9.3,17.5,14.1-.9,1.9-1.9,3.9-3.2,6.6-6.3-5.1-12.4-10-18.8-15.1h0Z"/>
      <path class="cls-1" d="M118.5,153.8v7.2c-.5.1-14,8.6-14.4,9.1-.8-.7-1.7-1.4-2.5-2.1-.8-.7-1.5-1.4-2.3-2.2,1.9-3.5,3.8-7,5.8-10.4.4-.8,1.5-1.5,2.3-1.5,3.6-.2,7.1,0,11.1,0h0Z"/>
      <path class="cls-1" d="M84.6,10.1c-.3-2.3-.7-4.6-1.1-7.5,7.5-.9,14.8-1.7,22.2-2.6.2,2.9.3,5.1.4,7.5-7.2.9-14.3,1.7-21.6,2.6h0Z"/>
      <path class="cls-1" d="M64.1,180.8c1.7.9,3.5,1.8,5.5,2.8-.4,1.2-.7,2.2-1,3.3,4.7-.3,2.8,4.3,4.7,7.1-6.4,1.4-12.3,2.7-18.9,4.2,3.5-6.2,6.6-11.7,9.8-17.5h0Z"/>
      <path class="cls-1" d="M224.1,59.9c-2.1,1-3.8,1.9-5.4,2.7-4-6.5-7.9-12.9-12-19.6,1.1-1.1,2.7-2.6,4.6-4.3,5.2,5.7,9.5,12.7,12.9,21.3Z"/>
      <path class="cls-1" d="M10.3,102.3c-1.2.7-3,1.8-5,2.9C1.5,97.1-.2,88.6,0,79.3h5.6c1.6,7.7,3,15,4.7,22.9Z"/>
      <path class="cls-1" d="M11.8,56.7c-1.5-1-3.1-2.1-5.7-3.8,5.1-6.8,10-13.4,15.2-20.3,1.9,2.5,3.1,4.3,4.3,5.9-4.6,6.1-9.1,12-13.8,18.3h0Z"/>
      <path class="cls-1" d="M84.7,188.7c-1.1-2.5-2-4.4-3-6.6,3.1-2.3,6.2-4.6,9.5-7.1,1.3,1.8,2.6,3.6,4.2,5.9-3.7,2.7-7.1,5.2-10.8,7.8h0Z"/>
    </g>
  </g>
</svg>