<svg width="22" height="22" viewBox="0 0 22 22" fill="none" xmlns="http://www.w3.org/2000/svg">
<path d="M20.0631 8.3545C19.5892 8.28392 19.0236 8.25 18.3333 8.25C15.9766 8.25 13.8132 10.8203 13.3687 11.3685C12.8242 11.1357 12.1926 10.9679 11.4483 10.9789C9.6635 11.0193 8.07217 11.9048 7.00517 12.6913C7.43692 10.9844 7.39292 9.18683 7.3535 7.66517C7.3315 6.7925 7.31042 6.01608 7.39658 5.50092H8.76608C9.4655 5.50092 10.0934 5.11225 10.406 4.488L10.8158 3.66758H10.9899C11.5803 3.66758 11.9066 3.20008 11.9157 2.75092C11.9167 1.41992 10.7965 0.0055 8.72025 0H8.70375C7.17842 0.00641667 5.97575 1.05142 5.94917 1.07708C0.00824984 5.64758 0.00183333 12.9543 0 15.3551C0 16.4643 0.455583 17.5377 1.25217 18.2994C3.03783 20.0063 6.66142 22 11 22C15.2268 22 18.3416 20.9046 20.2098 19.9843C21.3143 19.4407 22 18.337 22 17.1041V10.6196C22 9.49117 21.1667 8.51675 20.0631 8.3545ZM21.0833 17.1041C21.0833 17.985 20.5938 18.7733 19.8046 19.162C18.0235 20.0383 15.0498 21.0833 11 21.0833C6.95017 21.0833 3.54842 19.2271 1.8865 17.6367C1.26042 17.0381 0.91575 16.2278 0.916667 15.3551C0.9185 13.0662 0.924 6.0995 6.53125 1.78475C6.54133 1.77558 7.53683 0.9185 8.71292 0.916667C10.3785 0.9185 11 2.04233 10.9908 2.75H9.61583C9.24733 2.75 9.163 2.49883 9.1575 2.28708C9.15475 2.03683 8.95033 1.83333 8.69917 1.83333C8.44617 1.83333 8.24083 2.03867 8.24083 2.29167C8.24083 2.84442 8.60658 3.66667 9.61583 3.66667H9.79092L9.5865 4.07642C9.43067 4.389 9.11533 4.58333 8.76608 4.58333H7.03908C6.84475 4.58333 6.67242 4.70617 6.60642 4.88858C6.38092 5.5275 6.40475 6.48083 6.43592 7.68808C6.48633 9.63325 6.55875 12.0487 5.55958 13.9938C5.52383 14.0589 5.49908 14.1295 5.49908 14.2093C5.49908 14.4623 5.70442 14.6676 5.95742 14.6676C6.09492 14.6676 6.21042 14.6153 6.29383 14.52C6.31767 14.4943 8.67717 11.9799 11.4574 11.9176C13.5052 11.9176 14.6969 13.4787 14.7428 13.5465C14.883 13.7564 15.1681 13.8114 15.378 13.673C15.5879 13.5328 15.6457 13.2495 15.5063 13.0396C15.4743 12.9919 15.0168 12.3649 14.1937 11.814C14.9673 10.8946 16.643 9.16758 18.3324 9.16758C18.9768 9.16758 19.4984 9.19783 19.9274 9.26292C20.5865 9.35917 21.0824 9.94308 21.0824 10.6205V17.105L21.0833 17.1041Z" fill="black"/>
</svg>
