<svg width="17" height="22" viewBox="0 0 17 22" fill="none" xmlns="http://www.w3.org/2000/svg">
<path d="M11.2734 10.9991C13.4844 9.21892 16.0245 6.996 16.4709 3.64192C16.5937 2.71975 16.3132 1.79117 15.7018 1.09267C15.0931 0.397833 14.215 0 13.2919 0H3.20762C2.28454 0 1.40637 0.399667 0.797705 1.09358C0.186288 1.79392 -0.0951287 2.72342 0.0286213 3.6465C0.476871 6.99783 3.01512 9.21983 5.2252 10.9991C3.01512 12.7783 0.476871 15.0003 0.0286213 18.3517C-0.0942121 19.2729 0.185371 20.2024 0.797705 20.9009C1.4082 21.5976 2.2882 21.9972 3.21312 21.9972H13.2864C14.2113 21.9972 15.0922 21.5976 15.7018 20.9018C16.3132 20.2033 16.5937 19.2757 16.4718 18.3563C16.0254 15.0022 13.4853 12.7793 11.2743 10.9991H11.2734ZM15.0115 20.2987C14.5752 20.7973 13.9464 21.0824 13.2855 21.0824H3.2122C2.55129 21.0824 1.92337 20.7964 1.48704 20.2978C1.04887 19.7973 0.848121 19.1327 0.936121 18.4745C1.36604 15.2588 4.0702 13.0955 6.24362 11.3575C6.3527 11.2704 6.41595 11.1393 6.41595 10.9991C6.41595 10.8588 6.3527 10.7277 6.24362 10.6407C4.07112 8.90267 1.36695 6.73933 0.936121 3.52367C0.847204 2.86275 1.04887 2.19725 1.48704 1.69675C1.92154 1.19992 2.54854 0.914833 3.2067 0.914833H13.291C13.95 0.914833 14.5761 1.19992 15.0106 1.69583C15.4488 2.19542 15.6486 2.86092 15.5606 3.51908C15.1325 6.7375 12.4275 8.90175 10.254 10.6407C10.1459 10.7277 10.0817 10.8588 10.0817 10.9991C10.0817 11.1393 10.145 11.2704 10.254 11.3575C12.4275 13.0955 15.1325 15.2607 15.5606 18.4791C15.6486 19.1363 15.4479 19.7991 15.0106 20.2987H15.0115ZM8.92487 13.6061C8.83779 13.5364 8.75529 13.4622 8.67829 13.3824C8.50595 13.2073 8.1952 13.2073 8.02195 13.3824C7.94495 13.4622 7.86337 13.5364 7.77445 13.6061C5.90629 15.1012 3.97395 16.6458 3.42304 18.6688C3.38545 18.8063 3.41479 18.9548 3.50095 19.0685C3.58804 19.1822 3.72279 19.2482 3.86487 19.2482H12.8308C12.9738 19.2482 13.1095 19.1822 13.1947 19.0685C13.2818 18.9548 13.3102 18.8073 13.2717 18.6688C12.7098 16.6338 10.6968 15.0242 8.92212 13.6061H8.92487ZM4.51845 18.3315C5.19129 16.8474 6.7927 15.565 8.35012 14.3202C9.82962 15.5036 11.4842 16.8263 12.1763 18.3315H4.51845Z" fill="black"/>
</svg>
