<svg width="39" height="46" viewBox="0 0 39 46" fill="none" xmlns="http://www.w3.org/2000/svg">
<path d="M19.5 46C8.7477 46 0 37.385 0 26.7957C0 20.153 4.60785 15.373 9.11625 11.5706L11.4114 9.63479L10.6977 12.5269C10.3779 13.8252 9.75 17.7486 9.75 20.9423C9.75 25.8009 10.2765 30.5444 16.575 30.5444C19.4103 30.5444 21.413 28.5664 21.45 25.7318C21.4832 23.1738 20.4497 20.9135 19.4513 18.728C18.5172 16.6828 17.55 14.5664 17.55 12.3003C17.55 7.04797 21.4559 1.4288 21.6236 1.19259L22.4621 0L23.2499 1.22523C24.9932 3.93304 27.2766 6.48912 29.486 8.96071C34.164 14.1958 39 19.6076 39 26.7957C39 37.385 30.2523 46 19.5 46Z" fill="url(#paint0_linear_18_216)"/>
<defs>
<linearGradient id="paint0_linear_18_216" x1="19.5" y1="0" x2="19.5" y2="46" gradientUnits="userSpaceOnUse">
<stop stop-color="#F5890B"/>
<stop offset="1" stop-color="#9C4507"/>
</linearGradient>
</defs>
</svg>
