<svg width="32" height="24" viewBox="0 0 32 24" fill="none" xmlns="http://www.w3.org/2000/svg">
<path d="M0.6669 23.9951C0.615995 24.0016 0.564473 24.0016 0.513568 23.9951C0.364415 23.96 0.231942 23.8745 0.138446 23.7531C0.0449507 23.6317 -0.00385728 23.4818 0.000238273 23.3286C0.000238273 18.5557 1.89665 13.9782 5.27228 10.6033C8.64791 7.22829 13.2262 5.33225 18.0001 5.33225H20.0001V0.666532C20.0001 0.542749 20.0346 0.421411 20.0997 0.316115C20.1647 0.210819 20.2579 0.125725 20.3686 0.0703679C20.4793 0.0150105 20.6033 -0.00842283 20.7266 0.00269356C20.8499 0.01381 20.9677 0.0590369 21.0667 0.133307L31.7333 8.13168C31.8161 8.19377 31.8833 8.27428 31.9296 8.36683C31.9759 8.45938 32 8.56143 32 8.66491C32 8.76839 31.9759 8.87044 31.9296 8.96299C31.8833 9.05554 31.8161 9.13605 31.7333 9.19814L21.0667 17.1965C20.9677 17.2708 20.8499 17.316 20.7266 17.3271C20.6033 17.3382 20.4793 17.3148 20.3686 17.2595C20.2579 17.2041 20.1647 17.119 20.0997 17.0137C20.0346 16.9084 20.0001 16.7871 20.0001 16.6633V11.9976H18.2001C14.8555 11.9867 11.5747 12.9133 8.73015 14.6723C5.88557 16.4313 3.59103 18.9521 2.10689 21.9489L1.26023 23.6285C1.20483 23.7385 1.12007 23.8309 1.01534 23.8956C0.910614 23.9603 0.790011 23.9948 0.6669 23.9951Z" fill="url(#paint0_linear_18_213)"/>
<defs>
<linearGradient id="paint0_linear_18_213" x1="16" y1="0" x2="16" y2="24" gradientUnits="userSpaceOnUse">
<stop stop-color="#A8A8A8"/>
<stop offset="1"/>
</linearGradient>
</defs>
</svg>
