<?xml version="1.0" encoding="UTF-8"?>
<svg id="Calque_1" data-name="Calque 1" xmlns="http://www.w3.org/2000/svg" viewBox="0 0 765 765">
  <defs>
    <style>
      .cls-1 {
        fill: #98348e;
      }

      .cls-1, .cls-2, .cls-3, .cls-4, .cls-5 {
        stroke-width: 0px;
      }

      .cls-6 {
        fill: none;
        stroke-width: 12px;
      }

      .cls-6, .cls-7, .cls-8 {
        stroke: #000;
        stroke-miterlimit: 10;
      }

      .cls-6, .cls-9, .cls-8 {
        opacity: .19;
      }

      .cls-3 {
        fill: #c83e4d;
      }

      .cls-7, .cls-4, .cls-8, .cls-5 {
        fill: #fff;
      }

      .cls-7, .cls-8 {
        stroke-width: 8px;
      }

      .cls-10 {
        opacity: .1;
      }

      .cls-5 {
        opacity: .11;
      }
    </style>
  </defs>
  <path class="cls-8" d="m214.0575213714,579.7557509154s-78.305455886.3230908858-124.8562790545,61.9439256644c-.1632983257.2161632912-.4746794762.1383698768-.5181070999-.1396922885-.8674691271-5.5543067539-6.2978648013-43.8687043687,4.0728203448-72.532113854,0,0-44.0239279319-14.6214345284-61.7039715202-43.8322413499-.136375076-.2253176571.0117826881-.5333182195.2561185421-.5281417503,8.4514104682.1790505378,106.511097116,1.1354583688,118.5047797331-50.5031069301"/>
  <path class="cls-8" d="m550.9424786264,579.7557509108s78.305455886.3230908897,124.856279052,61.9439256707c.1632983257.2161632913.4746794762.1383698769.5181070999-.1396922884.8674691273-5.5543067539,6.297864803-43.8687043684-4.0728203419-72.5321138542,0,0,44.0239279325-14.6214345262,61.703971522-43.8322413469.136375076-.2253176571-.011782688-.5333182195-.2561185421-.5281417503-8.4514104682.1790505374-106.511097116,1.1354583635-118.5047797311-50.503106936"/>
  <path class="cls-7" d="m214.0575213714,571.9211884875s-78.305455886.3230908858-124.8562790545,61.9439256644c-.1632983257.2161632912-.4746794762.1383698768-.5181070999-.1396922885-.8674691271-5.5543067539-6.2978648013-43.8687043687,4.0728203448-72.532113854,0,0-44.0239279319-14.6214345284-61.7039715202-43.8322413499-.136375076-.2253176571.0117826881-.5333182195.2561185421-.5281417503,8.4514104682.1790505378,106.511097116,1.1354583688,118.5047797331-50.5031069301"/>
  <path class="cls-7" d="m550.9424786264,571.9211884829s78.305455886.3230908897,124.856279052,61.9439256707c.1632983257.2161632913.4746794762.1383698769.5181070999-.1396922884.8674691273-5.5543067539,6.297864803-43.8687043684-4.0728203419-72.5321138542,0,0,44.0239279325-14.6214345262,61.703971522-43.8322413469.136375076-.2253176571-.011782688-.5333182195-.2561185421-.5281417503-8.4514104682.1790505374-106.511097116,1.1354583635-118.5047797311-50.503106936"/>
  <path class="cls-3" d="m717.0352020996,256.3635449102c0-99.5189309153-80.6761005641-180.1949358426-180.1949358426-180.1949358426-68.281577973,0-127.6892133367,37.9809869813-158.2581610444,93.9666438508-30.5689477077-55.9856568696-89.9765830713-93.9666438508-158.2581610444-93.9666438508-99.5189309153,0-180.1949358426,80.6760049274-180.1949358426,180.1949358426,0,2.0989397169.0491572887,4.1861161137.1203110295,6.2676499424h-.1203110295c0,274.2096849779,341.5869218582,426.2001960799,341.5869218582,426.2001960799,0,0,335.3192719158-155.1243360732,335.3192719158-426.2001960799h-.1203110295c.0711537408-2.0815338287.1203110295-4.1687102255.1203110295-6.2676499424Z"/>
  <path class="cls-2" d="m714.1962890625,256.3635559082c1.1255101207-90.1187702663-69.5384665408-167.8009237298-159.3998746931-175.3846114334-58.4468917392-5.8640832491-118.1871246711,19.9723291392-154.4258482902,66.1230356764-7.0777441353,8.8879982385-13.2313453703,18.602482859-18.6519827035,28.5976082464-5.4975220654-10.0952714065-11.7023734593-19.9302492296-18.8971171379-28.8918653246-64.7460591436-81.492620259-186.8900054892-89.4966074252-261.1591867226-16.348157366-31.532815042,30.6622257223-50.5748443114,73.4589715683-52.2855547461,117.3703927896-.2457999638,6.5133035296-.0142287439,14.30562394.1189721398,20.8012328383-.0000914401.0000037335-6.1126402683.0000037335-6.1126402683.0000037335h-.1086425781c.0000008157.0000000352-.0114751973-.0000305429-.0114746076-.0000305175-.0000000018,0,5.9997558576-5.9998779298,5.9997558576-5.9998779298.0369107556,5.1387354842.1461981925,12.5661572608.4710951241,17.628774826.3493322603,8.429796619,1.2848744494,17.9736091108,2.4309239488,26.3391860153,22.9257941488,172.2716664778,186.3323727754,306.5541357359,334.2127580085,378.7838710236.0277630328.006064693-3.1166934093.0222173681-3.1113477945.0245402409,42.2828409855-20.8431977703,82.4408614507-46.3686355433,120.3165083209-74.4215132221,99.6801089503-74.5343967864,190.6701148741-177.3592356146,207.7300744031-304.7645115165,1.3707043703-9.786217183,2.1961881376-20.6128998316,2.6280907633-30.4789061985.1891446613-3.1161084284.1065587519-9.928144744.2283448531-13.1113291168-.0003702563-.0005196862,5.9998023689,5.9999192612,5.9998023726,5.9997961339-.0000000037.0000002616-.1201171849.0000002614-.1201171875.0000002615,0,0-6.1440429687,0-6.1440429687,0,.0671243995-3.0445430406.2229335805-9.2224967803.2915039062-12.2676391602h0Zm11.9453125,0s-.0961914063,6.4725036621-.0961914062,6.4725036621c0,0-5.9965820313-6.204864502-5.9965820312-6.204864502-.0000000012.0000000001.1201171884,0,.1201171875,0h6c0,.0001535921,0,6.000102959,0,6.0002437375-.1880038965,21.023474289-2.2285080082,42.4263143607-6.2873375662,63.0493016391-24.3405060978,122.3359602654-113.3765129918,220.3519540446-211.1496223741,292.2659789648-38.6347563264,28.1333207493-79.2141068246,53.4981473157-122.2982631152,74.3085070224-.000128507-.0002215493-1.560675382.7352520834-1.560675382.7352520834-.0056344417-.002572319-1.5573122392-.7128551797-1.5624853429-.7152032694C234.0383217369,620.8317812087,71.1151177319,488.770119918,42.0240425632,317.2271478818c-2.355252835-13.3046371873-3.7100992866-27.3934324211-4.4153611566-40.8822096752-.2174742163-5.6947992145-.3215770859-13.9835834447-.4839928374-19.6899098207.0000672902.0000009111,6.1382508839-.0238027999,6.1382508839-.0238027999.000000862.0000000798.0114739881-.0000305751.0114746113-.0000305174-.0000000019-.0000000002.1086425762-.0000000002.1086425762-.0000000002.0000000003,0-5.9963378909,6.2048645019-5.9963378906,6.204864502-.008830739-2.599085382-.1232139245-5.1977899472-.040039495-7.7953491198.3059214988-18.1096662892,3.1359323419-36.3107279696,8.5838203985-53.5837329497C87.4481051283,72.7608871561,246.4799638885,29.3848264759,346.6839463201,120.6523645525c15.0421894066,13.8388606732,27.711198679,30.2085478216,37.4170996603,48.1805098837.002223931-.0017111915-4.7871420908.0073523842-4.7673149029-.0051403758,39.4674771347-73.8012661362,125.0234526588-111.5439760048,206.2035367826-91.3215944783,81.4841912087,19.8363790154,140.5400847582,94.866690667,140.6043337024,178.8574163262h0Z"/>
  <path class="cls-5" d="m555.7957765742,111.6383663097c12.2040141883.4542745548,24.0564676895,2.1778400343,35.4445091405,5.0312580592-16.1637581185-8.0721241109-34.0585413829-12.9017799045-53.0125972724-13.6542498408-54.2753848981-2.1546959412-102.6002513116,29.5754731655-127.3609880162,77.6226104616,33.3317020952-43.7672015323,86.3615139823-71.1805190902,144.9290761481-68.9996186799Z"/>
  <g class="cls-9">
    <g>
      <path class="cls-2" d="m182.7301419509,383.317597239c-6.0877506176,1.7165641352-12.6952512459-.9784757042-14.8980033608-6.106825227-2.8542767963-6.6452003144-5.550710429-13.1250454843-8.1029820231-19.4024339086-6.0525918787-14.886505829-11.6563511319-30.3096759449-16.0165017751-45.6613372267-3.9338795411-13.8510894663-6.3803334291-25.9195625398-7.206063388-36.1534001401-.3489951595-4.7395136427-.0542784477-9.4893522144.9194638243-14.2464298375.9748322006-4.7538525329,3.3418302887-9.0670510174,7.1335831315-12.9001751068,3.7882650711-3.8313607307,9.6278848881-6.7330602142,17.4602212886-8.5856541032,7.6706999791-1.8144032528,14.6172513512-1.9401817699,20.7133313837-.4310251819,6.0940091681,1.508646142,11.3202171308,3.8313143265,15.6689235229,6.9203938697,4.3465265348,3.0875018012,7.7098284183,6.2276723413,10.1344837329,9.3824369946,6.0848537673,7.3884031793,11.4176567537,14.9464136192,16.0575920859,22.639413805,4.6408072751,7.6928377711,8.7931085213,15.1035845609,12.5086753502,22.2120081487.1431076341-5.6886414415.4744459491-11.707727015,1.0133066826-18.0533587699.5386427477-6.3432187378,1.2069870069-12.3770840411,1.9929345693-18.0963522383.7856205838-5.7167159675,1.6695527335-10.4944666506,2.6210604606-14.3262450189,3.0253150035-14.5497043249,14.4026443965-27.7501144456,32.5028717989-29.6220124716,9.4039045468-.9725387052,17.7864369389.5191931149,24.8084113749,4.5109962816,7.021102493,3.9912927207,12.3781018958,10.1976655456,16.0862572098,18.5295352143,1.7386542111,3.7451881772,3.6497351374,9.2519020496,5.6984740545,16.5206984672,2.0484119385,7.2675203028,4.0863605618,15.9109244021,6.094881111,25.9190056897,2.0086295421,10.0085917335,3.8930072161,21.0759411299,5.6591276296,33.1903079327,1.2955328098,8.8862905111,2.4966421045,18.1843063539,3.6155060777,27.889287101.6674715692,5.7896213333-4.4931198997,10.8849243525-11.3155266579,11.1920834568-3.2878192644.1480245398-6.3837362404.3167751747-9.71752769.5292701101-6.3435359396.4043352081-11.9534026634-3.4533924542-12.8035322353-8.8214903786-.4921175289-3.1074499382-1.0484863648-6.4134855784-1.6708862751-9.9184548265-1.3142359878-7.4009091045-2.8135418634-15.083491553-4.5153564854-23.0412971649-1.7008336863-7.9561814658-3.4717497859-15.7188111165-5.3166720421-23.2817636011-1.8449222562-7.5630916971-3.6184541846-14.3811643603-5.3083885842-20.4512481225-1.6890624567-6.0670906928-3.1894582609-10.8950506936-4.4808057467-14.4726269898-1.2914564786-3.5779707317-2.2531005423-5.3342295529-2.8599728246-5.2682892198-.1533529636.0166590989-.6747748383,1.9887901435-1.5299328712,5.9080403821-.8557029972,3.9218256704-1.7954394947,9.1250330344-2.7703806881,15.6050048767-.9735242862,6.4823848594-1.9697190887,13.6204607152-2.9445512893,21.411164892-.9753771649,7.7946949358-1.8244315972,15.6099469213-2.5499971115,23.4404194763-.7258924928,7.8336280389-1.2343442164,15.051472672-1.5709141891,21.6531162618-.0587549734,1.1521554333-.1129918936,2.2665779039-.1629491898,3.3433233422-.3452591956,7.4414808619-6.540406914,13.7272073902-15.0799254364,15.3358579366-.1322276872.0249086808-.2644131334.0498650772-.3965948355.0748764705-8.6252186122,1.6320620175-17.4211701351-1.9363718194-21.3988249738-8.654460091-1.2701672851-2.1452580194-2.6016615243-4.351901133-3.9964299831-6.619145301-4.0643440027-6.6071656867-8.3195345151-13.3328012328-12.7729830522-20.1678578241-4.4538845086-6.8357062498-8.8918560586-13.3914097061-13.2973477344-19.6639084808-4.4049467114-6.2716634995-8.508637139-11.8584013721-12.2668201788-16.7636939309-3.7565481468-4.9031579668-6.8282941116-8.7673264494-9.1573626821-11.6098606094-2.3291775634-2.839889122-3.6584545667-4.2207845695-3.9543702001-4.1516887525-.5964089671.1392125258-.505617909,2.5294451895.2903569971,7.1665680195.7960838991,4.6371692342,2.1548979693,10.8363494119,4.0871235118,18.5867283604,1.9328794997,7.753163199,4.3151365892,16.4564054823,7.1420845751,26.1041119448,2.826947986,9.6479384834,5.9428360618,19.5629329954,9.3237947897,29.7458652154,1.6057919064,4.8361967419,3.1062967036,9.2511827849,4.5003154698,13.2460718292l.0417699752.1196554954c1.8582421549,5.3231749505-1.6658382909,10.9363990796-7.9038860224,12.5566457418-3.4552452521.8974521882-6.6519021232,1.7633314747-10.1090610818,2.7381472073Z"/>
      <path class="cls-2" d="m367.9594973919,357.7028443351c-6.4917096151.1119672347-11.9372867758-4.1717254675-12.2685052493-9.6934069453-.4213076167-7.0235408028-.7513599597-13.8514884021-1.0153411528-20.4529092247-.6296517915-15.7467000258-.6531942507-31.8850976951.4724840775-47.6520299413,1.015377547-14.223018931,2.8259670502-26.3683373188,5.5408703691-36.3544462294,1.2888406498-4.6163801636,3.1890222895-9.0811114825,5.7338967362-13.382639317,2.5447654539-4.2981403297,6.254446668-7.8261569667,11.1502972514-10.5390842652,4.8918178474-2.7120920233,11.4082833671-4.0224067203,19.4616573015-3.8329848768,7.8871598125.1855238927,14.5186128068,1.8022917631,19.7858020873,4.7688642836,5.2654453947,2.9656212349,9.4321336993,6.4919441195,12.5030077212,10.5315203846,3.0694571146,4.0375808856,5.1880604593,7.8796609808,6.4093255317,11.5012516372,3.2464615303,8.5831250757,5.721798528,17.1404494299,7.4922786561,25.6537130197,1.7713520711,8.5133563982,3.1758341526,16.6349687487,4.2689236136,24.3584796797,2.0939709568-5.4024204884,4.481350711-11.0737067684,7.1794691285-17.0052740674,2.6971374816-5.9293166965,5.4118228148-11.5305558738,8.1309768555-16.8016061421,2.7179551192-5.2687764637,5.2068072324-9.6152003377,7.4348394153-13.0404781307,7.9017648567-13.1630083555,23.3334109086-22.9289294545,41.2845360692-20.1897605949,9.3395987554,1.4251186265,16.8656652003,4.9501421942,22.2257164034,10.526601542,5.3571083957,5.5733734701,8.3608428116,12.8523556042,9.0447730507,21.7469455042.3777692763,4.0164437837.3120465776,9.7597261416-.2289940131,17.2220047679-.5409315979,7.4609097032-1.5714591534,16.2321341033-3.0982312314,26.3038355152-1.5269900638,10.072536687-3.537145506,21.1221596885-6.0242537333,33.1451566702-1.8230005324,8.8128321959-3.8787288446,17.9944524786-6.1544173542,27.5437510434-1.3612516825,5.7121168752-8.064777325,9.299456508-14.7047127105,7.8836338282-3.2347205238-.689734224-6.2850243456-1.309264888-9.5801303769-1.9463210529-6.2162284136-1.2018085597-10.2562537697-6.3033311855-9.2148123023-11.6582912965.6004590696-3.0874844785,1.2076698039-6.3799492148,1.8191609087-9.8781985967,1.2940723074-7.4031829091,2.5086888149-15.1225638685,3.6264106639-23.1549873943,1.1173948703-8.0307993796,2.0998565716-15.8964462994,2.9428074034-23.5853861198.8430598246-7.6894502663,1.4959270967-14.654856186,1.9724439103-20.8778417057.4762988279-6.2203868858.7056198196-11.2149610779.7031129837-14.9556480501-.0025068359-3.7417774703-.3185861496-5.663095943-.9215346887-5.7517743219-.1517180706-.0223204083-1.3315658536,1.7323142668-3.5033577173,5.2645768858-2.173208771,3.5345828278-4.8669674737,8.2733308016-8.0350631328,14.2237149937-3.1686406234,5.9528668154-6.580880304,12.5274567711-10.2014053531,19.7307768973-3.6223779278,7.2070324603-7.1268255738,14.4658519802-10.5195555313,21.7698227626-3.3940378719,7.3069406496-6.3674722709,14.079769242-8.9639003436,20.3064670957-.4528035397,1.0858231214-.8883062352,2.136762522-1.3067557459,3.1528123029-2.8947307069,7.0287822682-10.9850221759,11.4896446121-19.7042798192,10.8930482127-.0923959214-.0063219916-.1847800493-.0126175787-.2771650705-.018887624-8.8197218566-.5985824845-16.0051421622-6.218768745-17.4805477836-13.6471656734-.4689695798-2.3611758934-.9748429164-4.7958991766-1.5197018404-7.3039134219-1.5926037696-7.3316740751-3.3249363944-14.8242778299-5.2070252181-22.4711290634-1.8823068095-7.6475472961-3.8446143832-15.023676571-5.8724266699-22.121009561-2.0274853081-7.0963585023-4.0033079973-13.462872136-5.8843068924-19.0916521914-1.880235945-5.6263670383-3.4669540998-10.0883837129-4.6997724161-13.3881382118-1.2337992521-3.2972254713-2.0198558074-4.9497477587-2.3238369129-4.957752479-.6127578971-.0161718551-1.345952912,2.2911829516-2.1808382716,6.9226908764-.8349943525,4.6315079248-1.6720595695,10.8967908502-2.4973535568,18.7885169165-.825620966,7.8944175085-1.5511864802,16.8093092352-2.1790943858,26.7383642123-.6279079056,9.9291013813-1.0740157094,20.1860018567-1.360666949,30.7652721376-.1361320906,5.0244120767-.2277950916,9.619771149-.2760789316,13.7872373211l-.0014347246.12482234c-.0638412535,5.5542467372-5.3740266978,10.0351073175-11.8971525817,10.0218841084-3.4338810575-.0069609153-6.6340917333.0175151036-10.0801374776.0769515596Z"/>
      <path class="cls-2" d="m558.4189828591,379.9395341507c-6.8484695498-1.538179169-11.2050826939-7.2557929441-10.0254882087-13.2025439185.5823292245-2.9357265796,1.2566451364-6.0740804871,2.0229907755-9.4155711399,1.7856301367-7.7858781425,3.9541522143-16.2065189985,6.5226781132-25.2478156987,2.5685258988-9.0414823168,5.3377076654-18.2056572731,8.3347935164-27.4816662917,3.7624337617-11.644710145,7.7107003612-22.9156346582,11.8853451451-33.7990379039,2.056047795-5.3600334866,4.0876342322-10.3769505359,6.0975468636-15.0489570654,3.2756850063-7.6142721323,13.0074248795-11.6638926337,22.0942530037-9.2373503923,2.3706118335.6330470516,4.6593612183,1.2581046593,6.9657097114,1.902728383,10.1730317744,2.8433593811,15.0894693173,12.5880327796,10.6048819449,20.8669255738-1.5737707212,2.9053016479-3.1524621072,5.9725448239-4.7372584773,9.2011385205-4.6583551267,9.490025075-9.3927872744,20.4293917559-14.2551770477,32.795083572-4.9423905376,12.5691741246-9.5894104061,25.277560775-14.0016596396,38.1099857859-2.9080488436,8.4569252042-5.6090250456,16.4580509705-8.1052982475,24.0039082909-2.0496900629,6.1959038592-9.5994400692,9.802809513-16.8781634611,8.0645640356-2.1815725421-.5209853982-4.3066818688-1.0131187311-6.5251539917-1.5113917513Z"/>
    </g>
  </g>
  <path class="cls-6" d="m63.4876208515,441.3848901537c21.847705427,37.8401562293,48.7545688854,72.0191761101,77.6286010807,102.3974967154,2.3003315469,2.4201749433,5.6949924636,3.4336243079,8.9566764221,2.7284762462,68.0801805857-14.7183503957,147.2058610822-23.1526095946,231.6378281973-23.1526095946,84.7757848405,0,164.2044421805,8.5020440292,232.4713559297,23.3317562423,3.2873080675.7141062913,6.709327264-.3185181955,9.0113218058-2.7742273126,28.5551870759-30.4619459208,55.2196103392-64.6888911172,76.9026763548-102.5052988346,3.0022379364-5.2360608867.4539144924-11.8983509992-5.2496921184-13.8583648667-82.2669104893-28.2705832299-192.2652463866-45.5519845722-313.1356619719-45.5519845722-120.7972248352,0-230.7352001479,17.2607518048-312.985766025,45.5009442611-5.7158026314,1.9624833535-8.2614285026,8.6460994962-5.2373396751,13.8838117157Z"/>
  <path class="cls-7" d="m63.1022363515,435.1172402114c21.8741579674,37.8401562293,48.8135994414,72.0191761101,77.7225914407,102.3974967154,2.3031167187,2.4201749433,5.7018877881,3.4336243079,8.9675208947,2.7284762462,68.1626100073-14.7183503957,147.3840934822-23.1526095946,231.9182882669-23.1526095946,84.8784287943,0,164.4032559478,8.5020440292,232.7528252095,23.3317562423,3.2912882406.7141062913,6.7174507143-.3185181955,9.0222324414-2.7742273126,28.5897608319-30.4619459208,55.2864685717-64.6888911172,76.9957877871-102.5052988346,3.0058729552-5.2360608867.4544640783-11.8983509992-5.2560482867-13.8583648667-82.3665167739-28.2705832299-192.4980353261-45.5519845722-313.5147971513-45.5519845722-120.943482458,0-231.0145673428,17.2607518048-313.364719715,45.5009442611-5.7227231522,1.9624833535-8.2714311901,8.6460994962-5.2436808875,13.8838117157Z"/>
  <g class="cls-9">
    <g>
      <path class="cls-2" d="m173.8194258914,509.4588219509c-5.5290986872.8750386424-10.8022602266.9802678191-15.8463152039.3077905848-5.0455772801-.6726675222-9.7316056824-1.8878456826-14.0667433036-3.6547158694-3.6510121362-1.4867432807-7.0081764077-3.1578074736-10.0685401419-5.0181894091-.9870861992-.6000454499-1.3563949309-1.8598883786-.9041287648-2.9228319433.9969265396-2.3430376388,1.823035542-4.2705300251,2.6605365997-6.2030350418,1.5264182147-3.5221577698,5.809084451-4.8895803061,9.09411401-2.9035972685l.0000061846.0000037389c2.4391095614,1.471305596,5.1768758912,2.6791576744,8.2144407164,3.62997845,3.0359473785.9510586354,6.1526719461,1.5910442207,9.3560726258,1.9205751914,3.2018783769.330434838,6.2650369169.2643098128,9.2029860567-.1995168026,4.4045926836-.6953593474,7.7918114189-1.8651538574,10.1706948783-3.5356908241,2.3790737472-1.6691098079,3.3860770082-3.5706562151,3.0068333387-5.7128691708-.2948510115-1.665446767-1.129929207-2.9648748695-2.5065666015-3.8899592144-1.3773034019-.9255600645-2.8912334745-1.6157340682-4.5383650367-2.0697608597-1.646084979-.4527423486-3.0815213167-.8971120321-4.2452266158-1.2311147671-.8542972676-.2451858847-2.4543325888-.5531191853-4.7314120526-.9593837285-2.2769843199-.4055985357-4.8249385271-.8407392588-7.6485246737-1.2989048109-2.8228249953-.4583558399-5.5062641461-.8856471896-8.0487951498-1.284395363-2.5432921551-.39793945-4.5523511931-.7424080164-6.024988804-1.0396851979-10.9710455426-2.2109544386-17.4452087981-7.3511523483-19.2898591405-15.6214901184-.5929369163-2.6580832959-.5719101098-5.3840993514.0764957126-8.1780005947.6467883757-2.7936158115,1.9975466236-5.4840480405,4.0578882351-8.0647793285,2.0604367554-2.58077886,4.9318802944-4.8399712666,8.6183266615-6.7621639047,3.6838774813-1.9217644904,8.2896044141-3.3410263616,13.7989131657-4.2309074557,6.0028202704-.9696592719,11.4483825948-1.2435786208,16.3097612436-.8420712737,4.8616640806.4028869339,9.2181139402,1.1936280622,13.0588837473,2.3598546752,3.2730433233.9938167419,6.1787727699,2.1179383407,8.7157747552,3.3624697039.7199393323.3531676695.9991850659,1.2374941374.6439499547,1.956415594-1.5352077298,3.1069388765-2.6731925215,5.4294802267-3.9113556666,7.9902534716-1.4777721747,3.0563334582-5.1150135639,4.2992019803-8.2136754054,2.9123784155-7.2056913118-3.224947743-14.7536722047-4.2199605315-22.536697153-2.9694437058-4.1157357392.6613453956-7.1603412145,1.5517973532-9.132674699,2.6481883281-1.9728092041,1.0979608496-3.2263303647,2.1699474086-3.7654158216,3.2122490643-.5395611766,1.0438715304-.7459283415,1.8613005286-.6233829711,2.452857858.2087457629,1.0076216965.8486837763,1.9395564037,1.921050911,2.798991443,1.070844832.8604816225,3.2394602258,1.5936131065,6.4995666824,2.2149029114,1.336201228.2686864332,3.123384642.570435379,5.3577444853.9109079007,2.2333132601.3403298058,4.7209462213.7226656528,7.4585222633,1.1486249875,2.7377663298.4266729142,5.4441351656.9099088895,8.1189162196,1.4515632323,2.6739247587.541464055,5.1492841541,1.1290253398,7.3501533371,1.7916551783,2.6628880639.8017778231,5.4644959647,1.9250945277,8.3551585757,3.2866516106,2.8899966036,1.3630793857,5.4449914609,3.1917931213,7.6607030956,5.4805752874,2.2155213469,2.2885918783,3.6089992154,5.2577957961,4.1952760572,8.8948148963.355743121,2.2071962538.2742999245,4.700823282-.2317705918,7.4792160661-.5074025313,2.7807713821-1.7271475998,5.5499827779-3.6465810642,8.3145321214-1.9200994718,2.7654056389-4.7941118966,5.2106044113-8.6180412298,7.3564328359-3.8247856284,2.1452575611-8.9195523157,3.7002898077-15.3037094219,4.7106231059Z"/>
      <path class="cls-2" d="m244.51330599,499.6703294193c-.1245258857.0160274075-.2413832938-.0678953822-.2677916035-.190639731-1.0941378075-5.0854914355-2.0309057245-10.0405762554-2.8049251678-14.8636591173-.7849373491-4.8910159803-1.4552262733-9.5244297942-2.0058241447-13.8964832568-.9123350595-7.2449717323-1.5615971771-13.7763164844-1.9405554149-19.5913702265-.3788630938-5.8136265832-.6537338819-10.8363693223-.8244220764-15.0656593313-5.995969908.9234668982-11.794230748,1.9552551507-17.3955436713,3.0901318416-.4789011859.0971550342-.9545068988.1952918245-1.4268144067.2944004242-7.6297121047,1.6010122015-15.008678012-3.5789494785-16.0836864529-11.300355032l-.0249043757-.1788793255c8.077528614-2.3065265074,16.4561877382-4.22567454,25.1128574-5.7463122591,8.6568599496-1.5191629883,17.3726139863-2.6751140577,26.1252838644-3.4641425955,6.2612311601-.564441312,12.2750881253-.9432092619,18.0288216102-1.1466269652,5.7522111822-.2033701314,11.2868282168-.2324365993,16.5950027191-.0981409546l.0651394576.9007318727c.5550281781,7.6747886597-5.4208585688,14.2490824914-13.1141374147,14.4036717775-.6317277416.0126939817-1.2682736894.0286299107-1.9096244629.0478291714-5.7544946363.1716396337-11.6198319406.5235769978-17.5893518386,1.0599032811.0903867251,4.1118824104.2717310387,8.6847371185.5415591989,13.7163282422.2698281603,5.032447419.7195734753,10.3991354328,1.3441933174,16.0968291482.5589705365,5.0986200161,1.3009979772,10.4528441763,2.2207542625,16.0625297647l.0276064995.1684238512c1.5630106005,9.5357350633-5.0896920114,18.4679643957-14.6736195459,19.7014871348l-.0000177536.000002285Z"/>
      <path class="cls-2" d="m338.5997537166,493.6982789918c-6.3884385826.2027516959-11.715832157-.5032637707-16.0139587929-2.1554379607-4.2981266359-1.6536489208-7.8045607043-4.0141220314-10.5214905154-7.1048247366-2.7161686597-3.0899891257-4.8485342195-6.7035076773-6.3851085454-10.8446468434-1.5362888941-4.1402828708-2.6670743964-8.6064336714-3.3771334796-13.396930099-.7099639393-4.7899731361-1.2414378826-9.6519702204-1.5853831574-14.5852301017-.3900900765-5.5941771292-.5622054298-11.0656661721-.5075928191-16.4131826859.0444865694-4.3642256273.1556205499-8.1589706677.3332985484-11.3841575765.0651395785-1.1824047871,1.0479539252-2.1003452409,2.2321361474-2.1064040888,2.0155511882-.0103125329,3.7811620544-.0166298943,5.4676304317-.018768844,6.4185955433-.0081407117,11.513281259,5.3963588301,11.1342455149,11.8037582186l-.0061812272.1044903864c-.206176877,3.4797937705-.2953267311,6.7577397124-.2715407508,9.833362106.0237859803,3.0757175376.1234968096,6.2405849292.2974198974,9.4915099975.1351995119,2.5284972753.332813436,5.2505172862.5923660528,8.1653940251.2587914654,2.9163514697.7227132247,5.7923619169,1.3852954913,8.6294109283.6635337058,2.8377625909,1.615924356,5.3919487249,2.8526050426,7.6622253983,1.2376321257,2.2717038323,2.9206329462,4.0734442662,5.0461481436,5.4092173466,2.1254200536,1.3357255084,4.8030554252,1.947643637,8.0410884922,1.8431756116,3.5061486366-.1130785502,6.3314473739-.8987294788,8.4844591645-2.3726039606,2.1523457832-1.4716385997,3.8099431767-3.409196981,4.9695572872-5.8166711887,1.1596141104-2.4067606283,1.9799449982-5.0769747741,2.4567111868-8.0108327253.4764807569-2.9319550728.733179056-5.9219955094.765718277-8.9682660033.0316829257-3.0440346118.0165550423-5.9237081-.0466205213-8.6354049954-.1193104771-5.1213594133-.4085479972-10.0908215565-.8750386424-14.904437957-.1274333542-1.315069582-.2636530538-2.6525773734-.4087422193-4.0124819204-.6646846335-6.2300148494,3.9195111225-11.788201183,10.1667182764-12.2649542236,1.8485852874-.1410740247,3.7692424033-.2824935191,5.9949485787-.4424382738,1.2036565386-.0864977381,2.2737404878.8046592562,2.3966728222,2.0051418936.5064047663,4.9452418866.8956546329,9.5119060182,1.1725154717,13.6991663104.3152118106,4.7896401323.4850437098,9.2054597987.5123500151,13.2429872347.0371061292,5.4848091919-.1529914251,10.7611104807-.5625860055,15.8258116889-.4095945804,5.0647487802-1.279495451,9.727276634-2.5950504481,13.9877262771-1.3163161485,4.2597360637-3.230706985,7.9841924274-5.7357512838,11.180409741-2.5059005941,3.1955037342-5.8220468202,5.7007383208-9.947962959,7.5312597909-4.1272481536,1.8310447617-9.2730119826,2.8262501764-15.4617434748,3.0226272296Z"/>
      <path class="cls-2" d="m397.8095985255,492.9794192957c-2.3580114766-.2235244959-4.3440155799-.4064502773-6.4153339314-.5898319568-4.0358909839-.3573127551-7.0544249774-3.8728101943-6.7977829904-7.9163511339,1.1596389846-18.2707738739,2.3737003515-36.5380947823,3.6418560615-54.8016306196l-.0003547494-.0003049252c-2.8146754504.5726923163-5.5667427191-1.1848366774-6.1428808294-3.9919254853-.5457390622-2.6589770506-1.0285991245-4.9881318382-1.6645143417-8.0330328521-.2395169805-1.1468596397.5152567042-2.2681846636,1.6715268089-2.457115503,3.3652421626-.5498698134,7.3374144583-1.1081284537,11.9175460479-1.6592633231,5.5767657916-.6710976475,11.3376350706-.9461111515,17.2684313927-.8186182972,4.5715702652.0982360985,9.2064112379.6266654364,13.8850184143,1.5875238956,4.6787023203.9601924518,9.1304863888,2.4503841161,13.341461193,4.462059612,4.2101185089,2.0131502267,7.907411283,4.6411680435,11.0809367715,7.8749672059,3.1718128979,3.2337040186,5.5710571564,7.1360319427,7.2003016614,11.6928549001,1.629244505,4.5567753854,2.2191368159,9.8762720144,1.8031675928,15.9521152442-.584849683,8.543020248-2.6482359,15.7452247878-6.1143289459,21.628782153-3.4678056364,5.8834622213-8.7131851509,10.8370353297-14.6604413713,13.7775533554-5.9480173718,2.9397568743-10.580813603,4.6765140101-18.7060560406,4.6765140101-13.7662788007,0-19.5588434807-1.2184349667-21.3085527438-1.3842962803Zm12.344473073-65.0991360384c-.009891162-.0002074138-.0197855495-.0004147894-.0296831665-.000622127-1.7090005742-.0358005334-3.1528775221,1.2713638302-3.2993501605,2.9744523208-.8507924892,9.8924612299-1.5954401622,18.4070093198-2.2456392984,25.5416116846-.598901561,6.5718758761-1.1225323858,12.2280133034-1.5758529241,16.9676598542-.1507136426,1.5757710841.8486780475,3.0265740991,2.3792192211,3.4305701728,1.2811677079.3381723619,2.6364086116.6538965069,4.0660995852.9478319644,2.4519539908.5049287893,5.025216481.7925964348,7.7243543788.865857254,5.4640202451.148281801,9.9088588074-.9341230174,13.3688626423-3.2808954034,3.4589572518-2.3446316478,6.0485844964-5.5113067739,7.7572741755-9.5108717854,1.708784823-3.9997552993,2.7022776472-8.3761853823,2.9550750456-13.1329532899.2015148249-3.792769699-.2853366194-7.042743328-1.471210452-9.748921876-1.1868252719-2.7047513892-2.807506824-4.9760746457-4.861188361-6.8048835253-2.0535863931-1.8287613076-4.3285726907-3.2851293079-6.8186793938-4.3649652405-2.4902018471-1.0791223532-4.9449150116-1.8936494617-7.3590017218-2.445674492-2.4133255588-.5505502995-4.5722362726-.9226581749-6.4715943696-1.119177944-1.899358097-.1957586177-3.2723800225-.3012732262-4.1186852007-.3190175675Z"/>
      <path class="cls-2" d="m499.0748191117,497.9608218012c-5.0438646895-.4519811972-9.5416032719-1.1436299317-13.5020641318-2.0930711204-3.9620783066-.9495839046-7.2621452101-2.4038111667-9.9115228372-4.3756213597-2.6493776271-1.9732373518-4.576612893-4.7175686121-5.778946624-8.2424606012-1.2039511777-3.524987133-1.5984178746-8.0506980282-1.1645615943-13.5832694685.3156875302-4.0273470365.8810327094-8.1914634595,1.7047887784-12.4884007964.8228046297-4.2970324808,1.7633022898-8.4507306445,2.8203512533-12.4591440407,1.058008613-4.0091105149,2.0699668534-7.581646372,3.0349135705-10.7198795003l-.0002410554-.0002838096c-1.9961024307.1424348013-3.7221150281-1.3648454724-3.8418468056-3.3570158225-.187662908-3.1224499356-.3388430381-5.5793621016-.5541859668-9.0134710605-.0622887165-.9933283648.6803261252-1.8708785486,1.6728578115-1.9447837335,3.0938169374-.230369585,6.5713991831-.3726326005,10.430917146-.4202745932,4.6207596724-.0556116219,9.5242870783-.0234054046,14.7103919299.1058000403,5.1841068292.1291578729,10.348328579.3622129076,15.4838168645.6948360558,5.1353931416.3333367276,9.9424446115.7381265399,14.4177292286,1.2063773476,3.5509614235.3715845839,6.7944176939.7704754731,9.7285610769,1.1887281503,2.0563885718.2936887731,3.8570935141.5852484091,5.4013600377.8723160898,1.0161876171.1889017329,1.6699522798,1.1853886215,1.4681023416,2.1990837138-.284859535,1.4305712214-.5366463238,2.6961048215-.7776106111,3.908720104-.9944216158,5.0042720524-5.7598830187,8.3307020336-10.7998047225,7.5364713719-3.6850116752-.5807132399-7.4994926936-1.1315645258-9.3953256151-1.326456493-4.7016320053-.4833311192-9.7319862581-.88517147-15.0871618574-1.1955785126-5.3567930461-.3105497585-13.872078841-1.7189652226-15.3394835362-.689745856-.8540118358.5989785553-1.5481818842,5.0192699859-2.221325126,7.6277832989-.6732383857,2.6091793204-1.3069920442,5.1910999074-1.8987872335,7.7451433256,4.0642628778-.1629815369,8.5215652938-.1717823496,13.369243218-.0148424517,4.8458701897.1575107614,9.6708087168.399223893,14.4699632412.7234268041,4.7989642366.3256776419,9.103750947.7009728387,12.9130281163,1.1149440395,2.2149504833.2407616924,4.1863325286.4757196055,5.9126238331.7008776948.8925184508.1171698104,1.7002951661.237369749,2.4231984169.3603824633,1.0044761654.1709265236,1.6675160897,1.1450948333,1.4977541723,2.1497684792-.2330560373,1.3792566806-.4396844677,2.6027484926-.6373094602,3.7737644975-.8422755383,4.9908572965-5.4305081085,8.4545737343-10.4616787291,7.9019374865l-.0627022278-.0068873681c-2.9395665865-.320825302-6.2269793485-.6247625579-9.8622382861-.9042478262-3.6361152329-.2788192608-7.3960127071-.5249565847-11.276838105-.7365090933-3.8825379885-.211029217-7.6488101055-.3646390776-11.2959620332-.4636363275-3.6497208136-.0984263864-9.1913784983-.6713355073-9.9284584551-.0376294208-.9432568338.8109592115-.9782697968,6.0345031961-1.1693187904,8.0756733075-.2754416516,2.9434674872-.0358692583,5.1399600499.710249371,6.5888592524.746499205,1.4497079259,2.1275132198,2.4512404114,4.1433274763,3.0097828002,2.0145773855.5582569571,4.703249452.9796969556,8.069060805,1.2756421222,5.9872166673.5265740314,12.4733680569.6826576339,19.4820498611.4914659245,6.245388323-.1705808681,12.4838227635-.707790074,18.73463861-1.6143224313,1.1751829863-.170432377,2.2079111839.7783011694,2.1241884798,1.9628233326-.1441683633,2.0397169861-.2669426973,3.7684410244-.3903042563,5.493429876-.3329384192,4.6555431522-4.0080420573,8.3788503644-8.6563597589,8.8008368311-5.0786980004.4610575185-9.7805331328.7070470577-14.1172148512.7252115323-6.5530375661.0274490212-12.0804236627-.1422401621-16.5918629697-.5465542548Z"/>
      <path class="cls-2" d="m555.5679123563,503.8029129799c.4535598422-4.0858365685,1.0703536596-8.574067197,1.8553435318-13.4692560421.7554427336-4.7109561096,1.6595954158-9.7074391264,2.7158832279-14.9896869103,1.0560975243-5.2801070456,2.2293172154-10.6223430718,3.5231793985-16.0231401813,1.2939624264-5.401579548,2.7089488743-10.6495004523,4.2526585755-15.7421797899l-.0001207867-.0001462077c-3.5280915374.2864540953-6.7217197956-2.0941712822-7.4495347647-5.5544892047-.429288777-2.0410072779-.8383075163-3.9602709733-1.3419681597-6.3008937146-.2867837174-1.3327475548.6615356265-2.6259600126,2.0212657464-2.7239138094,13.4171512711-.9665601209,28.1755369233-.4484087136,41.0063649376,1.1866036335,13.8423939376,1.7639207253,33.8902646976,10.2094184542,29.6994604047,27.970933218-1.6035556463,6.7959875686-5.4251063814,11.8945600128-11.6034671862,15.0042439302-5.9194021219,2.9810751859-13.7696946041,4.2186034414-23.6007338174,3.8218337932-.4655469374-.018788949-.7273042423.5421610165-.4028704719.8765705024,5.0033403737,5.1571834839,10.1220087007,9.6219971355,15.387465938,13.4023461189,4.7911898463,3.4402161304,9.6744806249,6.5801397312,14.6624732025,9.4216387085,1.1729070431.6681674264,1.3047604165,2.2979215006.2451719359,3.1342413517-1.1616968306.9169126866-2.2087513281,1.7460372375-3.2157453543,2.5469691143-5.3532952938,4.2578453648-12.9242439891,4.2968390819-18.3162860449.0881694898l-.0000092461-.0000072169c-3.4156667677-2.6689772748-6.7781480834-5.5265298013-10.0944845975-8.5758924727-3.3168122336-3.0471743612-6.4732118163-6.0833120276-9.4635852566-9.111029457-2.5530826369-2.5830802213-4.866758535-4.9858780243-6.9334617457-7.2122946015-.4369498314-.4707170063-1.2156520158-.2475801813-1.3372213607.3830707122-.6942982974,3.6017290536-1.3815856881,7.2399827085-2.0609001425,10.9138951382l-.023261126.125714986c-1.3568505103,7.3331120174-8.0839567072,12.4162016743-15.510304436,11.7343405598-1.6193067393-.1486790463-2.909971874-.2609990041-3.4912452981-.2926475159l-.524067104-.6149941328Zm42.9424847096-59.6013084926c-1.954827003-.3072672932-3.9927146492-.5458882473-6.1144240898-.7173851651-2.1228511677-.1709260543-5.8059674976-.7985905018-6.3898657414-.3652099412-1.0308843852.7651474135-1.7033616195,6.5424290189-2.4881086808,9.7540596478-.785032493,3.2130577877-1.5309608345,6.4142701572-2.2386413197,9.6071574336,3.030619319.3861891758,6.3357288503.7133415485,9.9200857901.9923035252,3.5827394931.2780581094,7.0283765959.2742047806,10.3430956633-.0154133152,3.3120550376-.2892850921,6.138305214-1.0284582152,8.4813194151-2.2292220715,2.3404453153-1.2004784245,3.7793068341-3.0694380388,4.3029789759-5.6177252497.6088259512-2.9623059836-.3675409672-5.3703034828-2.9434674872-7.209150046-2.5772585349-1.8398455744-6.8721502775-3.2562531279-12.8729725255-4.1994148178Z"/>
    </g>
  </g>
  <g>
    <path class="cls-2" d="m172.7525040586,503.4398889111c-5.5577383591.8795711749-10.858213865.9853454186-15.9283960808.309384881-5.0717124038-.6761518111-9.7820135354-1.8976243615-14.1396063389-3.6736465975-3.6699236796-1.4944443261-7.0444774188-3.1741643113-10.1206932508-5.0441826688-.9921991166-.6031535704-1.3634207967-1.869522244-.9088119786-2.9379716528,1.0020904281-2.3551741249,1.8324785169-4.2926505524,2.6743176696-6.2351655749,1.5343247686-3.5404018722,5.8391743955-4.9149073954,9.1412197782-2.9186373461l.0000062166.0000037583c2.4517436817,1.4789266771,5.2036911165,2.6930351979,8.2569899456,3.6487810429,3.0516730043.9559849369,6.184541608,1.5992855249,9.4045352895,1.930523403,3.2184634935.3321464272,6.2974886079.265678887,9.2506557613-.2005502614,4.4274076299-.6989611756,7.8321715092-1.874814997,10.2233771292-3.5540050252,2.3913968934-1.677755477,3.4036162384-3.5891515303,3.0224081593-5.7424607386-.2963782833-1.6740734622-1.1357820239-2.9802323533-2.5195501363-3.9101084578-1.3844375697-.9303542883-2.90620951-1.6241032611-4.5618728981-2.0804818244-1.6546113839-.4550874672-3.0974830068-.9017589005-4.2672160763-1.2374917058-.8587223638-.2464559006-2.4670455614-.5559842368-4.7559198606-.9643531524-2.2887786624-.4076994584-4.8499307843-.8450941271-7.6881425662-1.305632889-2.8374466879-.4607300354-5.5347855395-.8902346724-8.0904863666-1.2910482849-2.5564659212-.4000007001-4.5759315001-.7462535477-6.0561970917-1.045070568-11.0278734566-2.222406759-17.5355716374-7.3892299091-19.3897769152-15.7024064443-.596008216-2.6718516581-.5748724946-5.4119879545.0768919457-8.2203610709.6501386155-2.8080862062,2.0078935324-5.5124543587,4.0789073187-8.1065533404,2.0711094231-2.5941468,4.9574264894-4.8650413905,8.6629679425-6.7971906182,3.7029592608-1.9317188623,8.3325429768-3.358332238,13.8703888922-4.2528227457,6.0339137293-.9746819212,11.5076830233-1.2500201198,16.3942426822-.8464330416,4.8868465691.404973811,9.2658620043,1.1998108269,13.1265262632,2.3720782703,3.2899970606.9989645222,6.2107776291,2.1289088556,8.7609207986,3.3798866528.7236684801.3549970104,1.0043606531,1.24390412.6472854921,1.966549452-1.5431598117,3.1230322246-2.6870391466,5.4576038941-3.9316157396,8.0316414537-1.4854267514,3.07216468-5.1415083542,4.3214710229-8.2562206704,2.9274639777-7.2430154123-3.2416523545-14.8300934001-4.2418191185-22.6534329265-2.9848248553-4.1370544618.664771038-7.1974304102,1.5598353662-9.1799802043,2.6619054363-1.9830279778,1.1036480764-3.2430421378,2.1811873205-3.7849199542,3.2288878991-.5423560001,1.0492785849-.7497921074,1.8709417087-.6266119754,2.4655631918.209827026,1.0128409838.8530797956,1.9496029343,1.9310015867,2.8134896825,1.0763916031.8649387524,3.2562400091,1.6018677171,6.5332331926,2.2263756841,1.3431224944.2700781774,3.1395631761.573390125,5.3854965752.9156262291,2.2448813949.342092649,4.7453998183.7264089224,7.4971559796,1.1545746449,2.7519474349.4288829981,5.4723347428.9146220432,8.1609706502,1.4590820518,2.6877751767.5442687351,5.1759564595,1.1348734747,7.3882257232,1.8009356089,2.6766813139.8059308787,5.4928010069,1.9350661485,8.3984366964,3.3036758363,2.9049662323,1.3701398758,5.4731954735,3.2083259982,7.70038407,5.5089636174,2.226997323,2.3004463457,3.6276931399,5.285030171,4.2170067834,8.9408883333.3575858022,2.2186291075.2757207456,4.725172646-.2329711191,7.5179569724-.5100307792,2.7951752451-1.7360938935,5.5787306253-3.6654696555,8.3575998049-1.9300452192,2.7797299103-4.8189444778,5.2375943438-8.6626810322,7.3945377486-3.8445972852,2.1563695843-8.9657538879,3.7194565999-15.3829797047,4.7350232311Z"/>
    <path class="cls-2" d="m243.8125649121,493.6006938635c-.1251709059.0161104264-.242633613-.0682470672-.2691787127-.1916272083-1.0998052318-5.1118333068-2.041425427-10.0925845167-2.8194541428-14.9406500238-.7890031742-4.916350506-1.4627640666-9.5737645157-2.0162139295-13.9684643777-.9170607803-7.2824992979-1.5696859513-13.8476751645-1.9506071201-19.6928497708-.3808255321-5.8437400551-.6571200982-10.8924996393-.8286924248-15.1436965602-6.0270278834.9282502799-11.8553226037,1.9653829977-17.4856492548,3.1061381325-.4813818023.0976582787-.9594510617.1963033987-1.434205032.295925362-7.6692325517,1.609305138-15.0864200886-3.5974877511-16.1669968673-11.3588887061l-.0250333756-.1798058862c8.1193686646-2.3184738728,16.5414276379-4.2475627245,25.24293719-5.7760770556,8.7017008256-1.5270319615,17.4626007984-2.688970636,26.2606078296-3.4820861904,6.2936631379-.5673650098,12.33867073-.9480949051,18.122207452-1.1525662732,5.782006534-.2044235497,11.3452918245-.2336405763,16.6809616538-.098649306l.0654768675.9053974912c.5579031177,7.7145425946-5.4489375776,14.3228900088-13.1820661341,14.4782800378-.6349999703.0127597341-1.2748431041.0287782082-1.9195159517.0480769174-5.784301816.1725286941-11.6800204439.5262890264-17.6804613112,1.065393377.090854911,4.1331811735.2731385534,8.7297223929.5443643718,13.7873761946.2712258184,5.0585145325.7233007281,10.4530009621,1.3511559812,16.1802076393.5618658968,5.125029891,1.3077368975,10.5069879065,2.2322573441,16.1457305915l.0277494958.1692962545c1.571106696,9.585128344-5.1160556409,18.563624913-14.7496260838,19.8035370636l-.0000178456.0000022969Z"/>
    <path class="cls-2" d="m338.3863624122,487.597709359c-6.4215294705.2038019108-11.776517923-.5058705806-16.0969080314-2.1666027164-4.3203901084-1.6622145054-7.8449868335-4.0349144145-10.5759898205-7.1416263675-2.730237893-3.1059946774-4.8736486978-6.7382305628-6.4181821843-10.9008200364-1.5442465762-4.1617287428-2.6808893308-8.6510133489-3.394626384-13.4663236303-.7136414165-4.8147842792-1.247868293-9.701965577-1.5935951384-14.6607787993-.3921106684-5.623153895-.5651175462-11.1229842029-.5102220526-16.4981998277.0447170013-4.3868314799.1564266345-8.2012325726.335024971-11.4431253317.0654769891-1.1885294174,1.0533821257-2.1112246269,2.243698185-2.1173148585,2.0259913573-.0103659498,3.8007477494-.016716034,5.4959517098-.018866063,6.4518426385-.0081828791,11.5729178502,5.424310935,11.1919187735,11.8648994247l-.0062132448.1050316266c-.2072448338,3.4978184355-.296856467,6.7927435094-.2729472799,9.8842970378.0239091871,3.0916491651.1241364994,6.2729099635.2989604755,9.5406742008.1358998195,2.5415944068.3345373459,5.2777139598.5954343955,8.2076892018.2601319556,2.9314576116.7264567408,5.8223652419,1.3924710565,8.6741096237.6669706833,2.8524616574,1.6242945346,5.4198779863,2.8673809902,7.7019142579,1.244042823,2.2834708229,2.9357612653,4.0945439271,5.0722862243,5.4372360561,2.1364293222,1.3426443106,4.8279343321,1.9577320579,8.08273979,1.8527229081,3.5243098148-.1136642755,6.3642430582-.9033847253,8.5284070375-2.3848935945,2.163494522-1.4792614057,3.8296779524-3.4268559682,4.9952986418-5.8468004311,1.1656206894-2.4192271872,1.990200734-5.1032725307,2.4694364801-8.052327304.4789488359-2.9471420383.7369767831-5.9526703115.769684551-9.014719903.0318470372-3.0598021279.0166407942-5.954391773-.0468620067-8.6801347388-.1199284825-5.1478870739-.4106641976-10.1430900789-.8795711749-14.9816400901-.1280934346-1.3218813905-.2650187261-2.666317216-.4108594257-4.033265808-.6681275725-6.2622851327,3.9398134392-11.8492618066,10.2193799293-12.3284843367,1.858160605-.1418047612,3.7887663568-.2839567814,6.0260012638-.4447300193,1.2098912489-.0869457798,2.2855180279.808827237,2.4090871282,2.0155281445.509027846,4.9708572921.9002939523,9.561175869,1.1785888772,13.7701253673.3168445474,4.8144495506.4875561433,9.2531423168.5150038901,13.3115833714.0372983319,5.5132194527-.1537838914,10.8168509713-.5655000932,15.9077863615-.4117162018,5.0909832086-1.2861229923,9.7776620633-2.6084923123,14.0601800194-1.3231344139,4.2818006805-3.2474414283,8.0255490145-5.7654613766,11.2383221214-2.518880679,3.2120558314-5.8522039074,5.7302670532-9.9994915012,7.5702702738-4.1486265083,1.8405292227-9.3210444081,2.8408896109-15.5418323438,3.0382838595Z"/>
    <path class="cls-2" d="m397.9029028733,486.8751261074c-2.3702255243-.22468231-4.3665167483-.4085556118-6.448564132-.5928871733-4.056796126-.3591635667-7.0909655472-3.8928706092-6.832994204-7.9573563161,1.1656456924-18.3654129822,2.3859956645-36.727355113,3.6607201782-55.0854925669l-.0003565869-.0003065046c-2.8292549299.5756587528-5.5955773798-1.1909739044-6.1746997753-4.0126028946-.5485658859-2.6727500423-1.0339270709-5.0139694055-1.6731362071-8.0746424232-.2407576326-1.1528001529.5179256352-2.2799334256,1.6801849975-2.4698428906,3.3826734723-.5527180337,7.3754208595-1.1138683468,11.9792766531-1.6678579892,5.60565237-.6745738048,11.3963618482-.951011826,17.3578785589-.8228585831,4.5952501233.0987449427,9.2540986843.6299114433,13.9569401495,1.5957469652,4.702937102.9651660647,9.177780559,2.4630766364,13.410567406,4.4851722259,4.2319261162,2.0235779591,7.9483701585,4.6652084047,11.138333901,7.9157580273,3.188242281,3.2504539858,5.5999141651,7.172995221,7.2375978445,11.7534216483,1.6376836794,4.5803786089,2.2306315194,9.9274292113,1.8125076554,16.034744145-.5878790923,8.5872714561-2.6619532546,15.8267820356-6.1459999984,21.7408151008-3.4857682052,5.9139374284-8.7583177806,10.8931690965-14.7363796489,13.8489184422-5.9788269622,2.9549842517-10.6356201904,4.7007374568-18.8029498271,4.7007374568-13.8375854875,0-19.6601545428-1.2247462264-21.4189269646-1.3914666698Zm12.4084150784-65.436337091c-.0099423964-.0002084881-.0198880348-.000416938-.0298369196-.0006253495-1.7178528698-.0359859733-3.1692088236,1.2779492512-3.3164401622,2.989859414-.8551994313,9.9437022838-1.6037042366,18.5023541016-2.2572712797,25.6739123397-.6020037564,6.605916934-1.1283468885,12.2913520696-1.5840155404,17.0555490815-.1514943104,1.5839332764.8530740372,3.0422511731,2.3915431208,3.448339869,1.2878039112.33992403,2.6500647031.6572835655,4.087161202.9527415524,2.4646546427.5075442237,5.0512461396.7967019324,7.7643650546.8703422287,5.4923228232.1490498724,9.9601847976-.9389615957,13.4381107895-3.297889813,3.4768739876-2.3567763905,6.0799150053-5.5398542871,7.7974553696-9.5601362791,1.717636001-4.0204732655,2.7162749277-8.4195724178,2.9703817682-13.2009794719.2025586331-3.8124155194-.2868146084-7.0792233892-1.4788310403-9.7994194236-1.1929727994-2.7187614832-2.8220491714-5.0018497591-4.8863683854-6.8401315182-2.0642235772-1.8382339408-4.3509938679-3.3021456483-6.8539988467-4.3875749242-2.5031006156-1.0847120002-4.970528724-1.9034582032-7.3971199408-2.4583426173-2.4258261229-.5534020445-4.5959195805-.9274373675-6.5051159886-1.1249750713-1.9091964081-.1967726098-3.2893303241-.3028337638-4.140019201-.3206700173Z"/>
    <path class="cls-2" d="m499.6926579012,491.8823313235c-5.0699909423-.4543223732-9.5910269488-1.1495537156-13.5720022372-2.1039128278-3.9826011131-.9545025673-7.299761731-2.416262448-9.9628626266-4.39828624-2.6631008956-1.9834583432-4.600318871-4.7420047137-5.8088804603-8.285154968-1.2101874141-3.543245891-1.6066973729-8.0923991016-1.1705938003-13.653628202.3173227311-4.0482079225.8855962901-8.2338936708,1.7136192576-12.5530883199.8270666001-4.3192902858,1.7724358579-8.4945038102,2.8349601325-12.5236800198,1.0634888949-4.0298769392,2.0806888852-7.6209178477,3.0506338413-10.7754064223l-.000242304-.0002852797c-2.0064418589.1431725863-3.7413948708-1.3719151104-3.861746836-3.3744045213-.1886349659-3.138623628-.3405981801-5.6082621284-.5570565439-9.0601591138-.0626113601-.9984736154.6838500842-1.8805693411,1.6815228944-1.9548573406,3.1098423164-.2315628553,6.6054377719-.374562766,10.4849472984-.4224515351,4.6446943222-.0558996794,9.5736210606-.0235266401,14.7865889418.1063480642,5.2109595094.1298268859,10.4019309384.3640891011,15.5640200694.6984351735,5.1619934942.335063348,9.9939445698.741949894,14.4924103037,1.2126261512,3.5693547233.3735093208,6.8296114759.7744663884,9.7789531594,1.1948855344,2.0670402706.2952100247,3.8770725195.5882798838,5.4293380479.87683452,1.0214512743.1898802076,1.6786023127,1.1915287074,1.4757068305,2.2104745462-.2863350528,1.4379813062-.539426049,2.710070128-.7816384851,3.9289665253-.9995725292,5.0301932229-5.7897181092,8.3738534741-10.8557456418,7.5755088497-3.7040993297-.5837212232-7.538338629-1.1374258133-9.4439916018-1.3333272835-4.7259855583-.4858346818-9.7823960824-.8897564886-15.1653104654-1.2017713802-5.3845402077-.3121583467-13.9439335517-1.7278691331-15.4189391221-.6933186074-.8584354535.6020811495-1.5562011698,5.0452688428-2.2328311646,7.667293755-.6767256316,2.6226943694-1.3137620126,5.2179888104-1.9086225876,7.7852616841,4.0853149809-.16382575,8.5657053694-.1726721492,13.4384933365-.0149193327,4.8709708689.158326637,9.7209016531.4012917962,14.5449148786.7271740164,4.8238219519.3273645897,9.1509066328.7046037437,12.979915128,1.120719236,2.2264235025.2420087918,4.2080169291.4781837419,5.9432500918.704508107.8971415254.1177767276,1.7091023693.2385992788,2.4357501205.3622491754,1.0096791595.1718118903,1.6761535036,1.1510262051,1.5055122519,2.1609038681-.2342632229,1.386400966-.441961949,2.6162302312-.6406106011,3.7933118746-.8466383642,5.0167089811-5.4586371001,8.4983668064-10.5158682206,7.9428680088l-.0630270133-.0069230433c-2.9547929782-.3224871156-6.2592339085-.6279987083-9.9133227909-.9089316567-3.6549496131-.2802634912-7.4343226359-.5276757592-11.3352499659-.7403240693-3.9026487915-.2121223079-7.6884294764-.3665278382-11.3544729524-.4660378749-3.6686256682-.0989362162-9.238988078-.6748128966-9.9798859678-.037824334-.9481427235.8151598249-.9833370469,6.0657607665-1.1753756377,8.117503748-.2768683866,2.9587140849-.0360550541,5.1665840582.7139283267,6.622988281.7503659279,1.4572171352,2.1385333307,2.4639373671,4.1647891188,3.0253728985,2.0250125104.5611486212,4.7276113831.9847715982,8.110856994,1.282249704,6.0182293026.529301584,12.5379777137.6861936697,19.5829631469.4940116238,6.277738238-.1714644443,12.5484865737-.7114562909,18.8316804487-1.6226843122,1.181270209-.1713151841,2.2193477408.7823326203,2.1351913692,1.9729903814-.1449151278,2.0502823293-.2683254093,3.787960827-.3923259576,5.5218847903-.3346629764,4.6796579737-4.0288029473,8.422251204-8.701198044,8.8464234798-5.105004683.4634457081-9.8311944206.710709426-14.1903393195.728967989-6.5869810452.0275912019-12.1429979428-.1429769388-16.6778056411-.5493853011Z"/>
    <path class="cls-2" d="m556.4783745454,497.7546834152c.4559091952-4.1070004191,1.0758978864-8.6184792224,1.8649538559-13.5390242079.7593557822-4.7353579597,1.6681918021-9.7577218013,2.7299509827-15.0673306166,1.0615679071-5.3074569885,2.2408646515-10.6773647738,3.5414287928-16.1061369776,1.3006649039-5.4295586952,2.7229807105-10.7046628244,4.2746865322-15.8237212652l-.0001214124-.000146965c-3.5463663757.2879378726-6.7565370163-2.1050186883-7.4881219275-5.5832603946-.4315124106-2.0515793046-.8426497887-3.9807844182-1.3489192977-6.3335311369-.2882692021-1.3396509317.6649622543-2.6395619824,2.0317355158-2.738023161,13.4866495442-.9715667171,28.3214808065-.4507313848,41.2187700517,1.192750013,13.9140948862,1.7730574967,34.0658097758,10.2623012858,29.8532979195,28.1158172932-1.6118617573,6.8311894822-5.4532073931,11.9561715548-11.6635709231,15.0819630392-5.9500634908,2.9965165842-13.8410189841,4.240454999-23.722981097,3.8416301601-.4679583814-.0188862722-.7310715389.5449693067-.4049572638.8811109696,5.0292567182,5.1838967063,10.1744387665,9.6718372372,15.4671700636,13.4717677041,4.8160072918,3.4580357909,9.7245925811,6.6142235943,14.7384220045,9.470440992,1.1789824769.6716284057,1.3115188255,2.3098242937.2464418796,3.1504761214-1.1677141976.9216621186-2.2201922368,1.7550813759-3.2324022991,2.5601619263-5.3810243378,4.2799001881-12.9911890969,4.3190958851-18.4111608975.0886261909l-.000009294-.0000072543c-3.4333592671-2.6828020658-6.8132575919-5.5551561669-10.1467720937-8.6203139527-3.3339926856-3.0629581406-6.5067418133-6.1148224184-9.5126048152-9.158222844-2.5663071158-2.5964600819-4.8919674119-5.0117039172-6.9693757491-7.2496529057-.4392131479-.4731552302-1.2219488603-.2488625993-1.3441479112.3850549451-.6978946295,3.6203853201-1.3887420372,7.2774844319-2.0715752104,10.970427024l-.0233816142.1263661656c-1.3638787359,7.3710961328-8.1258300542,12.4805152202-15.5906448414,11.7951221957-1.627694438-.1494491753-2.9250449708-.2623509289-3.5093292798-.294163374l-.5267816711-.6181796845Zm43.1649185532-59.9100318517c-1.9649526324-.3088588789-4.0133961461-.5487158439-6.1460956351-.7211010828-2.13384713-.1718114185-5.8360412969-.8027270476-6.4229640217-.3671016587-1.0362241688.7691107305-1.7121847064,6.5763175478-2.5009966071,9.804583808-.789098811,3.2297008114-1.5388909183,6.4474948477-2.2502370528,9.6569206685,3.0463173464.3881895617,6.3685467119.717036521,9.9714699339.9974434673,3.6012973973.2794983972,7.0647822402.2756251089,10.3966709173-.0154931532,3.3292108481-.2907835335,6.170100459-1.0337854317,8.5252510248-2.2407690147,2.3525683736-1.2066966728,3.7988829195-3.0853371397,4.3252675826-5.6468239902.6119795529-2.9776501611-.369444759-5.398120626-2.9587140849-7.2464920621-2.5906082403-1.849375622-6.9077466993-3.2731198952-12.9396520569-4.221166982Z"/>
  </g>
  <g>
    <path class="cls-4" d="m182.7301419509,369.2153848687c-6.0877506176,1.7165641352-12.6952512459-.9784757042-14.8980033608-6.106825227-2.8542767963-6.6452003144-5.550710429-13.1250454843-8.1029820231-19.4024339086-6.0525918787-14.886505829-11.6563511319-30.3096759449-16.0165017751-45.6613372267-3.9338795411-13.8510894663-6.3803334291-25.9195625398-7.206063388-36.1534001401-.3489951595-4.7395136427-.0542784477-9.4893522144.9194638243-14.2464298375.9748322006-4.7538525329,3.3418302887-9.0670510174,7.1335831315-12.9001751068,3.7882650711-3.8313607307,9.6278848881-6.7330602142,17.4602212886-8.5856541032,7.6706999791-1.8144032528,14.6172513512-1.9401817699,20.7133313837-.4310251819,6.0940091681,1.508646142,11.3202171308,3.8313143265,15.6689235229,6.9203938697,4.3465265348,3.0875018012,7.7098284183,6.2276723413,10.1344837329,9.3824369946,6.0848537673,7.3884031793,11.4176567537,14.9464136192,16.0575920859,22.639413805,4.6408072751,7.6928377711,8.7931085213,15.1035845609,12.5086753502,22.2120081487.1431076341-5.6886414415.4744459491-11.707727015,1.0133066826-18.0533587699.5386427477-6.3432187378,1.2069870069-12.3770840411,1.9929345693-18.0963522383.7856205838-5.7167159675,1.6695527335-10.4944666506,2.6210604606-14.3262450189,3.0253150035-14.5497043249,14.4026443965-27.7501144456,32.5028717989-29.6220124716,9.4039045468-.9725387052,17.7864369389.5191931149,24.8084113749,4.5109962816,7.021102493,3.9912927207,12.3781018958,10.1976655456,16.0862572098,18.5295352143,1.7386542111,3.7451881772,3.6497351374,9.2519020496,5.6984740545,16.5206984672,2.0484119385,7.2675203028,4.0863605618,15.9109244021,6.094881111,25.9190056897,2.0086295421,10.0085917335,3.8930072161,21.0759411299,5.6591276296,33.1903079327,1.2955328098,8.8862905111,2.4966421045,18.1843063539,3.6155060777,27.889287101.6674715692,5.7896213333-4.4931198997,10.8849243525-11.3155266579,11.1920834568-3.2878192644.1480245398-6.3837362404.3167751747-9.71752769.5292701101-6.3435359396.4043352081-11.9534026634-3.4533924542-12.8035322353-8.8214903786-.4921175289-3.1074499382-1.0484863648-6.4134855784-1.6708862751-9.9184548265-1.3142359878-7.4009091046-2.8135418634-15.083491553-4.5153564854-23.0412971649-1.7008336863-7.9561814658-3.4717497859-15.7188111165-5.3166720421-23.2817636011-1.8449222562-7.5630916971-3.6184541846-14.3811643603-5.3083885842-20.4512481225-1.6890624567-6.0670906928-3.1894582609-10.8950506936-4.4808057467-14.4726269898-1.2914564786-3.5779707317-2.2531005423-5.3342295529-2.8599728246-5.2682892198-.1533529636.0166590989-.6747748383,1.9887901435-1.5299328712,5.9080403821-.8557029972,3.9218256704-1.7954394947,9.1250330344-2.7703806881,15.6050048767-.9735242862,6.4823848594-1.9697190887,13.6204607152-2.9445512893,21.411164892-.9753771649,7.7946949358-1.8244315972,15.6099469213-2.5499971115,23.4404194763-.7258924928,7.8336280389-1.2343442164,15.051472672-1.5709141891,21.6531162618-.0587549734,1.1521554333-.1129918936,2.2665779039-.1629491898,3.3433233422-.3452591956,7.4414808619-6.540406914,13.7272073902-15.0799254364,15.3358579366-.1322276872.0249086808-.2644131334.0498650772-.3965948355.0748764705-8.6252186122,1.6320620175-17.4211701351-1.9363718194-21.3988249738-8.654460091-1.2701672851-2.1452580194-2.6016615243-4.351901133-3.9964299831-6.619145301-4.0643440027-6.6071656867-8.3195345151-13.3328012328-12.7729830522-20.1678578241-4.4538845086-6.8357062498-8.8918560586-13.3914097061-13.2973477344-19.6639084808-4.4049467114-6.2716634995-8.508637139-11.8584013721-12.2668201788-16.7636939309-3.7565481468-4.9031579668-6.8282941116-8.7673264494-9.1573626821-11.6098606094-2.3291775634-2.839889122-3.6584545667-4.2207845695-3.9543702001-4.1516887525-.5964089671.1392125258-.505617909,2.5294451895.2903569971,7.1665680195.7960838991,4.6371692342,2.1548979693,10.8363494119,4.0871235118,18.5867283604,1.9328794997,7.753163199,4.3151365892,16.4564054823,7.1420845751,26.1041119448,2.826947986,9.6479384834,5.9428360618,19.5629329954,9.3237947897,29.7458652154,1.6057919064,4.8361967419,3.1062967036,9.2511827849,4.5003154698,13.2460718292l.0417699752.1196554954c1.8582421549,5.3231749505-1.6658382909,10.9363990796-7.9038860224,12.5566457418-3.4552452521.8974521882-6.6519021232,1.7633314747-10.1090610818,2.7381472073Z"/>
    <path class="cls-4" d="m367.9594973919,343.6006319648c-6.4917096151.1119672347-11.9372867758-4.1717254675-12.2685052493-9.6934069453-.4213076167-7.0235408028-.7513599597-13.8514884021-1.0153411528-20.4529092247-.6296517915-15.7467000258-.6531942507-31.8850976951.4724840775-47.6520299413,1.015377547-14.223018931,2.8259670502-26.3683373188,5.5408703691-36.3544462294,1.2888406498-4.6163801636,3.1890222895-9.0811114825,5.7338967362-13.382639317,2.5447654539-4.2981403297,6.254446668-7.8261569667,11.1502972514-10.5390842652,4.8918178474-2.7120920233,11.4082833671-4.0224067203,19.4616573015-3.8329848768,7.8871598125.1855238927,14.5186128068,1.8022917631,19.7858020873,4.7688642836,5.2654453947,2.9656212349,9.4321336993,6.4919441195,12.5030077212,10.5315203846,3.0694571146,4.0375808856,5.1880604593,7.8796609808,6.4093255317,11.5012516372,3.2464615303,8.5831250757,5.721798528,17.1404494299,7.4922786561,25.6537130197,1.7713520711,8.5133563982,3.1758341526,16.6349687487,4.2689236136,24.3584796797,2.0939709568-5.4024204884,4.481350711-11.0737067684,7.1794691285-17.0052740674,2.6971374816-5.9293166965,5.4118228148-11.5305558738,8.1309768555-16.8016061421,2.7179551192-5.2687764637,5.2068072324-9.6152003377,7.4348394153-13.0404781307,7.9017648567-13.1630083555,23.3334109086-22.9289294545,41.2845360692-20.1897605949,9.3395987554,1.4251186265,16.8656652003,4.9501421942,22.2257164034,10.526601542,5.3571083957,5.5733734701,8.3608428116,12.8523556042,9.0447730507,21.7469455042.3777692763,4.0164437837.3120465776,9.7597261416-.2289940131,17.2220047679-.5409315979,7.4609097032-1.5714591534,16.2321341033-3.0982312314,26.3038355152-1.5269900638,10.072536687-3.537145506,21.1221596885-6.0242537333,33.1451566702-1.8230005324,8.8128321959-3.8787288446,17.9944524786-6.1544173542,27.5437510434-1.3612516825,5.7121168752-8.064777325,9.299456508-14.7047127105,7.8836338282-3.2347205238-.689734224-6.2850243456-1.309264888-9.5801303769-1.9463210529-6.2162284136-1.2018085597-10.2562537697-6.3033311855-9.2148123023-11.6582912965.6004590696-3.0874844785,1.2076698039-6.3799492148,1.8191609087-9.8781985967,1.2940723074-7.4031829091,2.5086888149-15.1225638685,3.6264106639-23.1549873943,1.1173948703-8.0307993796,2.0998565716-15.8964462994,2.9428074034-23.5853861198.8430598246-7.6894502663,1.4959270967-14.654856186,1.9724439103-20.8778417057.4762988279-6.2203868858.7056198196-11.2149610779.7031129837-14.9556480501-.0025068359-3.7417774703-.3185861496-5.663095943-.9215346887-5.7517743219-.1517180706-.0223204083-1.3315658536,1.7323142668-3.5033577173,5.2645768858-2.173208771,3.5345828278-4.8669674737,8.2733308016-8.0350631328,14.2237149937-3.1686406234,5.9528668154-6.580880304,12.5274567711-10.2014053531,19.7307768973-3.6223779278,7.2070324603-7.1268255738,14.4658519802-10.5195555313,21.7698227626-3.3940378719,7.3069406496-6.3674722709,14.079769242-8.9639003436,20.3064670957-.4528035397,1.0858231214-.8883062352,2.136762522-1.3067557459,3.1528123029-2.8947307069,7.0287822682-10.9850221759,11.4896446121-19.7042798192,10.8930482127-.0923959214-.0063219917-.1847800493-.0126175787-.2771650705-.018887624-8.8197218566-.5985824845-16.0051421622-6.218768745-17.4805477836-13.6471656734-.4689695798-2.3611758934-.9748429164-4.7958991766-1.5197018404-7.3039134219-1.5926037696-7.3316740751-3.3249363944-14.8242778299-5.2070252181-22.4711290634-1.8823068095-7.6475472961-3.8446143832-15.023676571-5.8724266699-22.121009561-2.0274853081-7.0963585023-4.0033079973-13.462872136-5.8843068924-19.0916521914-1.880235945-5.6263670383-3.4669540998-10.0883837129-4.6997724161-13.3881382118-1.2337992521-3.2972254713-2.0198558074-4.9497477587-2.3238369129-4.957752479-.6127578971-.0161718551-1.345952912,2.2911829516-2.1808382716,6.9226908764-.8349943525,4.6315079248-1.6720595695,10.8967908502-2.4973535568,18.7885169165-.825620966,7.8944175085-1.5511864802,16.8093092352-2.1790943858,26.7383642123-.6279079056,9.9291013813-1.0740157094,20.1860018567-1.360666949,30.7652721376-.1361320906,5.0244120767-.2277950916,9.619771149-.2760789316,13.7872373211l-.0014347246.12482234c-.0638412535,5.5542467372-5.3740266978,10.0351073175-11.8971525817,10.0218841084-3.4338810575-.0069609153-6.6340917333.0175151036-10.0801374776.0769515596Z"/>
    <path class="cls-4" d="m558.4189828591,365.8373217804c-6.8484695498-1.538179169-11.2050826939-7.2557929441-10.0254882087-13.2025439185.5823292245-2.9357265796,1.2566451364-6.0740804871,2.0229907755-9.4155711399,1.7856301367-7.7858781425,3.9541522143-16.2065189985,6.5226781132-25.2478156987,2.5685258988-9.0414823168,5.3377076654-18.2056572731,8.3347935164-27.4816662917,3.7624337617-11.644710145,7.7107003612-22.9156346582,11.8853451451-33.7990379039,2.056047795-5.3600334866,4.0876342322-10.3769505359,6.0975468636-15.0489570654,3.2756850063-7.6142721323,13.0074248795-11.6638926337,22.0942530037-9.2373503923,2.3706118335.6330470516,4.6593612183,1.2581046593,6.9657097114,1.902728383,10.1730317744,2.8433593811,15.0894693173,12.5880327796,10.6048819449,20.8669255738-1.5737707212,2.9053016479-3.1524621072,5.9725448239-4.7372584773,9.2011385205-4.6583551267,9.490025075-9.3927872744,20.4293917559-14.2551770477,32.795083572-4.9423905376,12.5691741246-9.5894104061,25.277560775-14.0016596396,38.1099857859-2.9080488436,8.4569252042-5.6090250456,16.4580509705-8.1052982475,24.0039082909-2.0496900629,6.1959038592-9.5994400692,9.802809513-16.8781634611,8.0645640356-2.1815725421-.5209853982-4.3066818688-1.0131187311-6.5251539917-1.5113917513Z"/>
  </g>
  <path class="cls-5" d="m234.0462873739,114.1657586593c14.952996884-.3985183305,29.4742894857,1.1190455929,43.307380046,4.2905514429-.0868381675-.3115845262-.2838498692-.5992598654-.6403836672-.7846995205-16.6782838249-8.6805651042-35.2689200705-13.8728754477-55.0020329124-14.6562360537-76.6559142089-3.0431613337-141.4576534551,61.4951943074-144.7389502923,144.1503061059-.1348478152,3.3913747346-.149002054,6.7568319104-.0745966637,10.1000057238,3.9530493579-77.7558324521,72.0311123303-140.8310414796,157.1485834896-143.0999276984Z"/>
  <g class="cls-10">
    <path class="cls-1" d="m539.0298231114,555.2826850494c-64.5458306289,59.0382946592-133.5582345827,96.8173652639-150.7611338318,105.8160049124-2.5998907434,1.3599730828-5.6494598278,1.4938965581-8.3674287103.3886346806-8.2271806419-3.3455824981-27.3300405362-11.6375041392-49.4441908837-24.784687211"/>
    <path class="cls-2" d="m539.5244140625,555.8231811523c-37.6251645847,35.75494737-79.6655202597,67.0382660223-124.0481151399,93.879455153-8.3319940893,5.0555424532-16.8374606685,9.9572632729-25.4059876624,14.6143824454-7.4387711895,4.0019393017-12.8818224994-.0566824579-19.4594430207-3.4067838844-4.6462686302-2.4165214875-9.2597940208-4.8632377961-13.8027627708-7.4310478546-9.0925292969-5.1195678711-17.9582519531-10.5944213867-26.5849609375-16.3831787109-.2102050781-.1410522461-.2661132812-.42578125-.1252441406-.6359863281.1313476562-.1957397461.388671875-.2570800781.5930175781-.1507568359,9.2004394531,4.7730102539,18.5612792969,9.1866455078,28.0649414062,13.2086181641,7.1118315871,3.0257983088,14.311191897,5.8193655861,21.6355225021,8.2412028894,1.9991610637.8238378133,4.2836066106,1.0720842691,6.2592659941.0240542361,17.7800661881-9.1020582699,35.1038989797-19.0916877142,52.0493223592-29.6698275756,26.1855945611-16.2845205199,51.8404160857-34.277628041,75.9972081943-53.4974159491.0000872003.0001309304,12.0215715753-9.8077303977,12.0215715753-9.8077303977,0,0,11.8168945313-10.0659790039,11.8168945312-10.0659790039.3046776417-.2739858057.7817583099-.2437243709,1.0468717723.0702539977.2548860402.2991307679.2255891652.7451146546-.058102241,1.0107396546h0Z"/>
  </g>
</svg>